<?xml version="1.0" encoding="UTF-8" standalone="no"?>
<!-- Created with Inkscape (http://www.inkscape.org/) -->
<svg
   xmlns:svg="http://www.w3.org/2000/svg"
   xmlns="http://www.w3.org/2000/svg"
   version="1.0"
   width="199.99997"
   height="66.155624"
   id="svg2964">
  <defs
     id="defs2966">
    <clipPath
       id="clipPath2470">
      <path
         d="M 0.03,565.98 L 566.01,565.98 L 566.01,0 L 0.03,0 L 0.03,565.98 z"
         id="path2472" />
    </clipPath>
    <clipPath
       id="clipPath2464">
      <path
         d="M -2,568 L 567,568 L 567,-1 L -2,-1 L -2,568 z"
         id="path2466" />
    </clipPath>
    <clipPath
       id="clipPath2458">
      <path
         d="M 169.08,97.28 L 309.98,97.28 L 309.98,43.42 L 169.08,43.42 L 169.08,97.28 z"
         id="path2460" />
    </clipPath>
  </defs>
  <g
     transform="translate(-325.24696,-551.08875)"
     id="layer1">
    <path
       d="M 455.83872,584.32155 C 455.83872,601.06326 442.27216,614.63734 425.52161,614.63734 C 408.79096,614.63734 395.2182,601.06326 395.2182,584.32155 C 395.2182,567.58604 408.79096,554.01461 425.52161,554.01461 C 442.27216,554.01461 455.83872,567.58604 455.83872,584.32155"
       id="path4047"
       style="fill:#c02229;fill-opacity:1;fill-rule:nonzero;stroke:none" />
    <path
       d="M 431.4787,588.56569 C 434.84226,586.67759 437.00015,583.03363 437.00015,579.08538 C 437.00015,573.00577 432.07048,568.0584 426.01254,568.0584 L 415.55389,568.0584 L 415.55389,600.59267 L 421.73965,600.59267 C 421.73965,600.59267 421.73965,590.92173 421.73965,590.0752 C 422.41413,590.0752 424.55257,590.0752 424.92143,590.0752 C 425.19166,590.44451 432.49993,600.59267 432.49993,600.59267 L 440.09436,600.59267 C 440.09436,600.59267 432.03067,589.34146 431.4787,588.56569 z M 421.73965,574.24504 C 422.50082,574.24504 426.01254,574.24504 426.01254,574.24504 C 428.65562,574.24504 430.8082,576.42018 430.8082,579.08538 C 430.8082,581.73155 428.65562,583.88281 426.01254,583.88281 C 426.01254,583.88281 422.50082,583.88281 421.73965,583.88281 C 421.73965,583.07211 421.73965,575.06415 421.73965,574.24504"
       id="path4049"
       style="fill:#ffffff;fill-opacity:1;fill-rule:nonzero;stroke:none" />
    <path
       d="M 520.24694,561.56393 L 520.24694,555.2247 L 457.62598,555.2247 L 457.62598,561.56393 C 457.62598,561.56393 482.24694,561.56393 484.88427,561.56393 C 484.88427,563.75853 484.88427,570.85849 484.88427,570.85849 C 484.88427,573.2906 484.83739,574.59223 484.72461,576.34411 C 482.26508,576.34411 459.5707,576.34411 459.5707,576.34411 L 459.5707,582.74438 C 459.5707,582.74438 480.61359,582.74438 483.75114,582.74438 C 481.96167,590.04247 476.29869,601.51704 458.45703,607.8461 L 457.4756,608.19639 L 457.4756,615.62496 L 459.47914,614.8576 C 478.3208,607.62717 485.38803,599.48166 488.76883,589.14022 C 492.83164,599.6767 502.51054,608.12783 518.19033,614.86954 L 520.24694,615.74437 L 520.24694,608.07166 L 519.22748,607.73818 C 504.47339,602.93234 495.67772,591.77755 493.27392,582.74438 C 496.43889,582.74438 518.09877,582.74438 518.09877,582.74438 L 518.09877,576.34411 C 518.09877,576.34411 494.16114,576.34411 491.84314,576.34411 C 491.67728,575.07742 491.53929,573.52943 491.53929,570.85849 C 491.53929,570.85849 491.53929,563.75853 491.53929,561.56393 C 494.19564,561.56393 520.24694,561.56393 520.24694,561.56393"
       id="path4051"
       style="fill:#000000;fill-opacity:1;fill-rule:nonzero;stroke:none" />
    <path
       d="M 331.72993,554.94518 L 331.72993,561.86954 L 344.47827,568.79701 L 344.47827,561.86954 L 331.72993,554.94518"
       id="path4053"
       style="fill:#000000;fill-opacity:1;fill-rule:nonzero;stroke:none" />
    <path
       d="M 391.48888,588.75764 L 391.48888,581.98055 L 378.71312,575.0354 L 378.71312,581.95932 L 391.22395,588.75764 C 385.53134,588.75764 366.94488,588.75764 364.71047,588.75764 C 364.71047,588.18268 364.71047,587.29855 364.71047,586.36932 L 375.10542,586.36932 L 375.10542,557.71209 L 364.02714,557.71209 L 365.50481,552.89652 L 358.68835,552.89652 L 357.21467,557.71209 L 348.08995,557.71209 L 348.08995,563.83283 L 348.08508,563.82797 L 348.08508,570.75676 L 348.08995,570.75676 L 348.08995,573.09113 L 348.08508,573.09599 L 348.08508,580.01638 L 348.08995,580.01638 L 348.08995,586.36932 L 358.30578,586.36932 C 358.30578,587.29855 358.30578,588.18268 358.30578,588.75764 C 356.08597,588.75764 337.86306,588.75764 332.00194,588.75764 L 344.47827,581.98055 L 344.47827,575.05486 L 331.74541,581.97392 L 331.74541,594.95844 C 336.17619,594.95844 348.85111,594.95844 353.12179,594.95844 C 348.57911,599.29103 341.55788,604.38966 331.24033,607.96021 L 330.24696,608.30696 L 330.24696,614.8399 L 332.22485,614.12297 C 343.40574,610.09466 352.15275,604.89033 358.30578,598.6369 C 358.30578,603.58161 358.30578,615.74437 358.30578,615.74437 L 364.71047,615.74437 C 364.71047,615.74437 364.71047,603.59444 364.71047,598.64088 C 370.94178,605.00045 379.73656,610.16543 390.93205,614.01284 L 392.88605,614.68289 L 392.88605,608.16852 L 391.87278,607.83946 C 381.52648,604.39718 374.4619,599.30519 369.89313,594.95844 C 374.23413,594.95844 387.2328,594.95844 391.49419,594.95844 L 391.49419,588.75764 C 391.48888,588.75764 391.48888,588.75764 391.48888,588.75764 z M 354.4221,563.5281 C 356.65695,563.5281 366.48048,563.5281 368.71666,563.5281 C 368.71666,565.07122 368.71666,567.22558 368.71666,568.77578 C 366.48048,568.77578 356.65695,568.77578 354.4221,568.77578 C 354.4221,567.22558 354.4221,565.07122 354.4221,563.5281 z M 354.4221,580.49006 C 354.4221,578.84433 354.4221,576.17074 354.4221,574.52456 C 356.65695,574.52456 366.48048,574.52456 368.71666,574.52456 C 368.71666,576.17074 368.71666,578.84433 368.71666,580.49006 C 366.48048,580.49006 356.65695,580.49006 354.4221,580.49006"
       id="path4055"
       style="fill:#000000;fill-opacity:1;fill-rule:nonzero;stroke:none" />
    <path
       d="M 391.48888,561.86954 L 391.48888,554.94518 L 389.31241,556.12828 L 378.71312,561.8837 L 378.71312,568.8116 L 391.48888,561.86954"
       id="path4057"
       style="fill:#000000;fill-opacity:1;fill-rule:nonzero;stroke:none" />
  </g>
</svg>
